<?xml version="1.0" standalone="no"?>
<!DOCTYPE svg PUBLIC "-//W3C//DTD SVG 20010904//EN"
 "http://www.w3.org/TR/2001/REC-SVG-20010904/DTD/svg10.dtd">
<svg version="1.0" xmlns="http://www.w3.org/2000/svg"
 width="120.000000pt" height="120.000000pt" viewBox="0 0 120.000000 120.000000"
 preserveAspectRatio="xMidYMid meet">
<metadata>
Created by potrace 1.11, written by Peter Selinger 2001-2013
</metadata>
<g transform="translate(0.000000,120.000000) scale(0.100000,-0.100000)"
fill="#000000" stroke="none">
<path d="M431 1038 c-12 -4 -31 -9 -43 -11 -13 -2 -40 -11 -62 -20 -21 -9 -42
-17 -46 -17 -4 0 -15 -9 -25 -20 -10 -11 -22 -17 -26 -14 -5 3 -9 1 -9 -4 0
-4 -13 -21 -29 -38 -52 -54 -66 -91 -65 -179 1 -117 32 -170 149 -261 114 -88
130 -125 102 -229 -13 -51 -14 -62 -2 -71 15 -11 263 -13 281 -1 6 3 14 29 18
57 9 71 47 112 125 133 66 19 87 41 72 79 -5 13 -5 33 0 46 9 23 5 25 -43 25
-32 0 -28 28 9 63 34 32 35 36 23 59 -12 23 -11 28 14 54 32 33 29 46 -11 55
-80 19 -86 26 -117 137 -27 96 -120 159 -243 163 -28 1 -61 -1 -72 -6z"/>
<path d="M1044 778 c-21 -18 -53 -48 -72 -67 -33 -32 -34 -35 -16 -48 16 -12
25 -7 81 49 35 34 63 68 63 75 0 25 -20 22 -56 -9z"/>
<path d="M975 603 c-27 -7 -36 -25 -19 -37 18 -14 172 -12 186 2 14 14 2 31
-20 27 -9 -1 -23 2 -29 8 -7 5 -13 6 -13 1 0 -5 -20 -9 -45 -10 -24 0 -42 3
-39 8 3 4 4 7 2 7 -2 -1 -12 -4 -23 -6z"/>
<path d="M945 490 c-10 -16 121 -144 140 -136 25 9 18 24 -47 86 -61 59 -81
70 -93 50z"/>
</g>
</svg>
